#!OML:ASF E:/inclinewalkrobotboard/Project1/Captureday1/Session1/subject1.ASF
:FULLY-SPECIFIED
:DEGREES
301
root 0 0 0 -1.142015798771773 -2.851552535244034 -0.8550198081561207
lowerback 10.955762069839585 0.5636076310452136 0.46332348248411037
upperback -1.1379300660600669 0.8812416130975257 0.9021094788765489
thorax -7.325078619503447 0.40590559236461426 0.4394144205618449
lowerneck -13.345431798903618 -1.385043597314278 0.24983475665190774
upperneck 19.043296386454887 -1.372752995164017 -2.3985682337572496
head 8.201372497237635 -0.7949642820309957 -1.022091793789476
rclavicle -4.570122411345205E-16 -2.5697289753051145E-16
rhumerus -11.262331913929271 -6.434061048529175 -66.95636025713323
rradius 43.4381359816216
rwrist 12.259577796665894
rhand -23.77453172886876 -6.374316941140851
rfingers 7.125020000000132
rthumb 2.92687403072695 -36.52582407106797
lclavicle -9.282945657335753E-16 -8.261125651530174E-16
lhumerus -10.629787384843928 -4.53707404578145 67.44264210751352
lradius 45.0796698545774
lwrist -6.044912086411541
lhand -33.92111473809972 -13.977782458050287
lfingers 7.125020000000122
lthumb -7.188800265528812 15.11646676238277
rfemur -30.392502854960483 3.321904191995567 19.297100003999656
rtibia 39.45716891637535
rfoot -2.7046600944792534 -9.376599560481493
rtoes 1.7578404925161328
lfemur 19.33632806311867 -2.7047390435772565 -30.924382406605474
ltibia 28.003009798887813
lfoot -9.212461328842053 -9.358909288121975
ltoes -7.3113150313893405
302
root 0 0 0 -1.1492532127525734 -2.8495868798010746 -0.8629555645875637
lowerback 10.952956099033962 0.5627459715967102 0.46578163255424565
upperback -1.1285351520861675 0.880784249670523 0.9063450568116203
thorax -7.312949930107425 0.4055125577240312 0.44291888814293456
lowerneck -13.366062258108338 -1.3938908855998426 0.23760598092719892
upperneck 19.044037115702505 -1.3862379296744574 -2.381328739842952
head 8.205135405448885 -0.8007277370479 -1.0156933113262547
rclavicle -4.577372554167543E-16 -2.5373049125466413E-16
rhumerus -11.342348750530071 -6.487706401489373 -67.00588465044778
rradius 43.3617488335159
rwrist 12.221639677359189
rhand -23.747543430949317 -6.242819282713388
rfingers 7.125020000000132
rthumb 2.954305676850492 -36.39710913581548
lclavicle -9.2961805218662E-16 -8.247104563039077E-16
lhumerus -10.748200369735303 -4.508651291106554 67.52792259298866
lradius 44.98511466633562
lwrist -5.9797547745776765
lhand -33.8804281190493 -13.762528965324867
lfingers 7.125020000000123
lthumb -7.1497377476478015 15.333431747202383
rfemur -26.73196561874775 4.569044217357973 21.21701318249711
rtibia 33.25731497861128
rfoot -5.5136003295738805 -9.331118656105717
rtoes 1.1353219416022078
lfemur 18.89966649884844 -2.4166137180289033 -30.453496352383272
ltibia 30.469488839021295
lfoot -7.986347676072738 -10.239034109090094
ltoes -7.602976628030193
303
root 0 0 0 -1.1591122651758479 -2.846981761330236 -0.8736956509428124
lowerback 10.94918535372056 0.5616514282126316 0.46939227605217726
upperback -1.1158570345880696 0.8801923570322434 0.9120180047922153
thorax -7.296463799937887 0.40499433028577697 0.4475981982319607
lowerneck -13.394301172685472 -1.4059281139695656 0.22103484288858327
upperneck 19.04518035695515 -1.4044187251828744 -2.3577375004121133
head 8.210245192625878 -0.8085512250595105 -1.0069390847376745
rclavicle -4.585489607326967E-16 -2.473227533228909E-16
rhumerus -11.47751705770781 -6.577628772737362 -67.08977172245325
rradius 43.23250320755422
rwrist 12.157253525060126
rhand -23.701937028773074 -6.020366645539632
rfingers 7.1250200000001325
rthumb 3.000609191395474 -36.1781160350361
lclavicle -9.351451718802349E-16 -8.221916405151182E-16
lhumerus -10.999000793380823 -4.447982548121227 67.70805781483679
lradius 44.785045439211196
lwrist -5.842373263511849
lhand -33.793964519571674 -13.303724565166572
lfingers 7.125020000000124
lthumb -7.067017243582482 15.791563395782873
rfemur -20.501379560115538 6.132786347599151 24.242830446182168
rtibia 26.493777924089844
rfoot -9.116015849703455 -8.842079016032624
rtoes 0.798890144468819
lfemur 17.622068252520783 -2.0846330281458743 -29.565814606183757
ltibia 33.452814885141194
lfoot -6.315139438770279 -11.139958273031148
ltoes -7.780400735734984
304
root 0 0 0 -1.1706276155642916 -2.844033156095779 -0.8861840402687213
lowerback 10.94483405364015 0.5604490338595863 0.4739357793473784
upperback -1.1011803293877602 0.8795321882399012 0.9185448029038055
thorax -7.277256812332734 0.40440030299370117 0.4529481149177015
lowerneck -13.42742830821401 -1.4200021484698944 0.20183937213836584
upperneck 19.04657903184742 -1.4254830069326498 -2.3300522604727942
head 8.216177446289326 -0.8176691500784877 -0.9966642891724833
rclavicle -4.596158967737762E-16 -2.3819687125619115E-16
rhumerus -11.653693243352421 -6.694181646196721 -67.19938732538039
rradius 43.063761769552414
rwrist 12.0731090532564
rhand -23.642458528636276 -5.729723534975932
rfingers 7.125020000000133
rthumb 3.0611034271907807 -35.891232619980805
lclavicle -9.453437118293456E-16 -8.189438044119077E-16
lhumerus -11.367154842150752 -4.358719393180818 67.97215690565032
lradius 44.49132255293968
lwrist -5.640669327511653
lhand -33.666934911694625 -12.628013086072045
lfingers 7.125020000000125
lthumb -6.945646346164109 16.46323215793265
rfemur -11.748555063116285 7.7951154153496045 28.233546227166613
rtibia 20.654957902383362
rfoot -13.012951234730327 -7.773219875672162
rtoes 1.0376168246586743
lfemur 14.639975015853024 -1.6130074824894507 -27.7965900075708
ltibia 37.87394282454045
lfoot -3.601060745177893 -12.230537946617858
ltoes -7.78344072444063
305
root 0 0 0 -1.1807480039433729 -2.841677150121919 -0.8969448508642553
lowerback 10.941131100001398 0.5595210309327832 0.47840310408037645
upperback -1.0886543326532223 0.8790820138711792 0.9241063374361651
thorax -7.260622070780161 0.4039077347526009 0.4574405450824496
lowerneck -13.456419046244644 -1.4322469883894784 0.18532200077169092
upperneck 19.04794849884994 -1.443420422355884 -2.3057727512112747
head 8.221310504153932 -0.8255291699016076 -0.9876804577068699
rclavicle -4.60848228339812E-16 -2.299698188352309E-16
rhumerus -11.807220596756256 -6.794455148179373 -67.29542354832172
rradius 42.91658674698345
rwrist 11.999782487965268
rhand -23.59070764242471 -5.475364234058375
rfingers 7.125020000000134
rthumb 3.1141430805230392 -35.63973842044379
lclavicle -9.581754691467595E-16 -8.160666963843942E-16
lhumerus -11.758674856084703 -4.2634896848677055 68.25280563606593
lradius 44.178537864119676
lwrist -5.4257622965454075
lhand -33.53161057682397 -11.906027894425947
lfingers 7.125020000000127
lthumb -6.816486999853877 17.175481369510244
rfemur -2.4080503554122004 8.970907348526469 32.16948787130447
rtibia 18.633636039893524
rfoot -15.712407364020521 -6.1829998887599045
rtoes 2.1900004171411043
lfemur 8.490009936871429 -0.8678516530481439 -24.47278534919607
ltibia 44.758458819584746
lfoot 0.703724053640002 -13.504708280507918
ltoes -7.450907107634558
306
root 0 0 0 -1.1853261929121266 -2.8412228797809314 -0.9012988001270126
lowerback 10.939735280431954 0.5593783474698922 0.4811006620721667
upperback -1.0839825628626605 0.8791750355581837 0.9262868966635003
thorax -7.2538716117620154 0.403774031702845 0.4589920767182976
lowerneck -13.468824454721831 -1.4372899984353407 0.17857501256743236
upperneck 19.04909922618275 -1.4499302578629134 -2.295296332418866
head 8.223523062032152 -0.8286171759353557 -0.983908474515618
rclavicle -4.612867223408825E-16 -2.2856560604445587E-16
rhumerus -11.835741608017528 -6.8102876889233 -67.31457812906757
rradius 42.88887578422579
rwrist 11.986310743364111
rhand -23.58124747836146 -5.426568571551822
rfingers 7.125020000000134
rthumb 3.124563197721912 -35.58968187944795
lclavicle -9.691301239617137E-16 -8.143992731606303E-16
lhumerus -12.022473315401857 -4.198538220699471 68.44168308290115
lradius 43.96763406488957
lwrist -5.281381425472863
lhand -33.44014402394241 -11.416455691779326
lfingers 7.125020000000128
lthumb -6.729323839783989 17.65198220699856
rfemur 5.015342999422348 9.374650082259848 35.03855366686427
rtibia 20.76096211188217
rfoot -16.576127948006214 -4.496172764115104
rtoes 3.8859843711213085
lfemur -0.9462075995910499 0.13496860353920226 -19.87375904840179
ltibia 52.75174344950727
lfoot 5.130504478626344 -14.061235799562365
ltoes -6.7511528956059195
307
root 0 0 0 -1.1817235426713348 -2.843443361996543 -0.8965636992906011
lowerback 10.941637097199694 0.5603157888492413 0.48078356375428766
upperback -1.0905955397886837 0.8798454626108654 0.9236499319134371
thorax -7.261523229344689 0.404151962252821 0.4562705574608879
lowerneck -13.457085269806267 -1.4318701640381208 0.18594422187813514
upperneck 19.04995208092997 -1.4400975905381836 -2.3050399895959424
head 8.22155781964108 -0.8248525508773119 -0.987732165953632
rclavicle -4.607755975097738E-16 -2.3800913212625324E-16
rhumerus -11.664658474485124 -6.693398420809957 -67.2104609257076
rradius 43.05111503589332
rwrist 12.067266816018812
rhand -23.638800237913074 -5.706529275118781
rfingers 7.125020000000133
rthumb 3.0668059634119773 -35.85962788879744
lclavicle -9.75637477565668E-16 -8.12333546812547E-16
lhumerus -12.069160656469535 -4.185622298498899 68.47308627573047
lradius 43.93279052497206
lwrist -5.258770414983631
lhand -33.4244181544873 -11.332860332506494
lfingers 7.125020000000128
lthumb -6.714306691687204 17.725838225543605
rfemur 9.604545823710964 9.263350170271364 36.65033839581321
rtibia 24.521777607146543
rfoot -16.311804629285593 -3.1736458717024147
rtoes 5.358774436375238
lfemur -11.543110351401964 1.010125873428522 -15.294787762883644
ltibia 58.36926319548068
lfoot 7.531731271736598 -12.998068495268074
ltoes -5.894700072923543
308
root 0 0 0 -1.1702949693691755 -2.847971499254228 -0.883202096271408
lowerback 10.94670201608952 0.562309916626607 0.47797123515352513
upperback -1.1077477195601186 0.8810588277969137 0.91636815418743
thorax -7.282867018612802 0.40498146591630685 0.4495543530845809
lowerneck -13.422460823176786 -1.4165596811945131 0.2067338772836193
upperneck 19.050380635211063 -1.415109561148443 -2.3337585004634454
head 8.215514293152111 -0.8147116962397054 -0.9987181212979496
rclavicle -4.621513602236757E-16 -2.575971462625894E-16
rhumerus -11.303929278852738 -6.4515452994275355 -66.98877208550142
rradius 43.393270071168736
rwrist 12.236750579411826
rhand -23.759935668747637 -6.297162694227371
rfingers 7.125020000000132
rthumb 2.9446649356260504 -36.43458240427135
lclavicle -9.771334417046416E-16 -8.096833555216966E-16
lhumerus -11.937358681164406 -4.215776771955346 68.37459577539924
lradius 44.04261939336584
lwrist -5.33655252616352
lhand -33.47127053263792 -11.586438639216567
lfingers 7.125020000000128
lthumb -6.75882883367156 17.468133932985374
rfemur 12.089205386031306 8.97927514362471 37.413918824218875
rtibia 28.022873715545387
rfoot -15.699748562055639 -2.2980727321701497
rtoes 6.371276616590566
lfemur -20.801611815772855 1.283911160078533 -11.85813737235842
ltibia 59.25259656365641
lfoot 7.601525338853962 -10.459385707959886
ltoes -4.71869014502866
